<?xml version="1.0" encoding="UTF-8" standalone="no"?>
<!-- Creator: CorelDRAW X8 -->

<svg
   xmlns:dc="http://purl.org/dc/elements/1.1/"
   xmlns:cc="http://creativecommons.org/ns#"
   xmlns:rdf="http://www.w3.org/1999/02/22-rdf-syntax-ns#"
   xmlns:svg="http://www.w3.org/2000/svg"
   xmlns="http://www.w3.org/2000/svg"
   xmlns:sodipodi="http://sodipodi.sourceforge.net/DTD/sodipodi-0.dtd"
   xmlns:inkscape="http://www.inkscape.org/namespaces/inkscape"
   xml:space="preserve"
   width="100.6531in"
   height="100.822in"
   version="1.0"
   viewBox="0 0 6967.1743 6979.5876"
   id="svg2"
   inkscape:version="0.91 r13725"
   sodipodi:docname="pic.svg"
   style="clip-rule:evenodd;fill-rule:evenodd;image-rendering:optimizeQuality;shape-rendering:geometricPrecision;text-rendering:geometricPrecision"><metadata
     id="metadata21"><rdf:RDF><cc:Work
         rdf:about=""><dc:format>image/svg+xml</dc:format><dc:type
           rdf:resource="http://purl.org/dc/dcmitype/StillImage" /><dc:title /></cc:Work></rdf:RDF></metadata><sodipodi:namedview
     pagecolor="#ffffff"
     bordercolor="#666666"
     borderopacity="1"
     objecttolerance="10"
     gridtolerance="10"
     guidetolerance="10"
     inkscape:pageopacity="0"
     inkscape:pageshadow="2"
     inkscape:window-width="1867"
     inkscape:window-height="1056"
     id="namedview19"
     showgrid="false"
     inkscape:zoom="0.079051444"
     inkscape:cx="2258.3949"
     inkscape:cy="3844.1935"
     inkscape:window-x="53"
     inkscape:window-y="24"
     inkscape:window-maximized="1"
     inkscape:current-layer="svg2" /><defs
     id="defs4"><linearGradient
       id="id0"
       gradientUnits="userSpaceOnUse"
       x1="2674.9199"
       y1="4459.7002"
       x2="2675.0701"
       y2="6494.6001"
       gradientTransform="translate(593.54269,-21.382255)"><stop
         offset="0"
         stop-opacity="1"
         stop-color="#390E5E"
         id="stop7" /><stop
         offset="1"
         stop-opacity="1"
         stop-color="#8F35E3"
         id="stop9" /></linearGradient></defs><path
     style="fill:url(#id0)"
     d="m 3420.5427,6473.6175 -2522.00001,-1564 0,-367.4464 L 3418.667,6002.6928 C 4255.1067,5678.2234 4934.6094,4966.3496 5940.5427,4568.9292 l 0,340.6883 z"
     id="polygon13"
     inkscape:connector-curvature="0"
     sodipodi:nodetypes="ccccccc" /><path
     style="fill:#ff5112;fill-rule:nonzero"
     inkscape:connector-curvature="0"
     id="path15"
     d="m 6056.5427,168.61774 -5273.00001,0 0,4220.99976 2637.00001,1540 2636,-1540 0,-4220.99976 z M 688.54269,-21.382255 l 5557.00001,0 0,4519.999755 c -941,551 -1883,1101 -2825,1650 -943,-549 -1885,-1100 -2827.00001,-1650 l 0,-4519.999755 95,0 z" /><rect
     style="opacity:1;fill:#ffffff;fill-opacity:1;stroke:#000000;stroke-width:1.38453662;stroke-linecap:butt;stroke-linejoin:round;stroke-miterlimit:0;stroke-dasharray:none;stroke-dashoffset:0;stroke-opacity:0.21556887"
     id="rect4167"
     width="720.03491"
     height="7015.4814"
     x="-19.82095"
     y="-16.432554" /><rect
     y="-16.432554"
     x="-19.82095"
     height="7015.4814"
     width="720.03491"
     id="rect4169"
     style="opacity:1;fill:#1b1b1b;fill-opacity:1;stroke:#000000;stroke-width:1.38453662;stroke-linecap:butt;stroke-linejoin:round;stroke-miterlimit:0;stroke-dasharray:none;stroke-dashoffset:0;stroke-opacity:0.21556887" /><path
     sodipodi:nodetypes="ccccccc"
     inkscape:connector-curvature="0"
     id="path4171"
     d="m 3420.5427,6473.6175 -2522.00001,-1564 0,-367.4464 L 3418.667,6002.6928 C 4255.1067,5678.2234 4934.6094,4966.3496 5940.5427,4568.9292 l 0,340.6883 z"
     style="fill:url(#id0)" /><path
     d="m 6056.5427,168.61774 -5273.00001,0 0,4220.99976 2637.00001,1540 2636,-1540 0,-4220.99976 z M 688.54269,-21.382255 l 5557.00001,0 0,4519.999755 c -941,551 -1883,1101 -2825,1650 -943,-549 -1885,-1100 -2827.00001,-1650 l 0,-4519.999755 95,0 z"
     id="path4173"
     inkscape:connector-curvature="0"
     style="fill:#ff5112;fill-rule:nonzero" /><rect
     style="opacity:1;fill:#ffffff;fill-opacity:1;stroke:#000000;stroke-width:2.65089297;stroke-linecap:butt;stroke-linejoin:round;stroke-miterlimit:0;stroke-dasharray:none;stroke-dashoffset:0;stroke-opacity:0.21556887"
     id="rect4175"
     width="3846.6577"
     height="3286.5164"
     x="2124.3857"
     y="3571.3884"
     transform="matrix(0.86636846,0.49940534,-0.42719108,0.90416137,0,0)"
     ry="567.15582" /><rect
     ry="576.46655"
     transform="matrix(0.88344896,0.46852741,-0.45682246,0.88955789,0,0)"
     y="3640.2341"
     x="2123.5117"
     height="3340.4697"
     width="4100.1685"
     id="rect4177"
     style="opacity:1;fill:#1b1b1b;fill-opacity:1;stroke:none;stroke-width:2.65089297;stroke-linecap:butt;stroke-linejoin:round;stroke-miterlimit:0;stroke-dasharray:none;stroke-dashoffset:0;stroke-opacity:0.21556887" /><rect
     ry="567.15582"
     transform="matrix(0.8702048,-0.49269017,0.56192138,0.82719065,0,0)"
     y="6885.2539"
     x="-882.15436"
     height="3286.5166"
     width="3846.6577"
     id="rect4177-3"
     style="clip-rule:evenodd;opacity:1;fill:#1b1b1b;fill-opacity:1;fill-rule:evenodd;stroke:#000000;stroke-width:2.65089297;stroke-linecap:butt;stroke-linejoin:round;stroke-miterlimit:0;stroke-dasharray:none;stroke-dashoffset:0;stroke-opacity:0.21556887;image-rendering:optimizeQuality;shape-rendering:geometricPrecision;text-rendering:geometricPrecision" /><rect
     y="-50.443962"
     x="6225.4785"
     height="7005.6621"
     width="817.24756"
     id="rect4169-6"
     style="clip-rule:evenodd;opacity:1;fill:#1b1b1b;fill-opacity:1;fill-rule:evenodd;stroke:#000000;stroke-width:1.47400951;stroke-linecap:butt;stroke-linejoin:round;stroke-miterlimit:0;stroke-dasharray:none;stroke-dashoffset:0;stroke-opacity:0.21556887;image-rendering:optimizeQuality;shape-rendering:geometricPrecision;text-rendering:geometricPrecision" /><path
     style="fill:url(#id0)"
     d="m 3420.5427,6473.6175 -2522.00001,-1564 0,-367.4464 L 3418.667,6002.6928 C 4255.1067,5678.2234 4934.6094,4966.3496 5940.5427,4568.9292 l 0,340.6883 z"
     id="path4209"
     inkscape:connector-curvature="0"
     sodipodi:nodetypes="ccccccc" /><path
     style="fill:#ff5112;fill-rule:nonzero"
     inkscape:connector-curvature="0"
     id="path4211"
     d="m 6056.5427,168.61774 -5273.00001,0 0,4220.99976 2637.00001,1540 2636,-1540 0,-4220.99976 z M 688.54269,-21.382255 l 5557.00001,0 0,4519.999755 c -941,551 -1883,1101 -2825,1650 -943,-549 -1885,-1100 -2827.00001,-1650 l 0,-4519.999755 95,0 z" /><rect
     style="opacity:1;fill:#1b1b1b;fill-opacity:1;stroke:none;stroke-width:1.79999995;stroke-linecap:butt;stroke-linejoin:round;stroke-miterlimit:0;stroke-dasharray:none;stroke-dashoffset:0;stroke-opacity:0.21556887"
     id="rect4213"
     width="10236.179"
     height="2773.1096"
     x="-691.20532"
     y="6103.8687"
     ry="374.49091" /><path
     sodipodi:nodetypes="ccccccc"
     inkscape:connector-curvature="0"
     id="path4215"
     d="m 3420.5427,6473.6175 -2522.00001,-1564 0,-367.4464 L 3418.667,6002.6928 C 4255.1067,5678.2234 4934.6094,4966.3496 5940.5427,4568.9292 l 0,340.6883 z"
     style="fill:url(#id0)" /><path
     d="m 6056.5427,168.61774 -5273.00001,0 0,4220.99976 2637.00001,1540 2636,-1540 0,-4220.99976 z M 688.54269,-21.382255 l 5557.00001,0 0,4519.999755 c -941,551 -1883,1101 -2825,1650 -943,-549 -1885,-1100 -2827.00001,-1650 l 0,-4519.999755 95,0 z"
     id="path4217"
     inkscape:connector-curvature="0"
     style="fill:#ff5112;fill-rule:nonzero" /></svg>